<svg width="85" height="35" fill="none" xmlns="http://www.w3.org/2000/svg"><path d="M27.363 22.555c-.03-.123-.054-.25-.094-.362a3.626 3.626 0 00-.772-1.363 3.57 3.57 0 00-2.016-1.12c.058-.634.113-1.367.16-2.175l.087-1.729.036-.935a4.966 4.966 0 000-.58l-.043-.32-.073-.314a3.622 3.622 0 00-2.95-2.595 10.5 10.5 0 00-1.215-.055 299.63 299.63 0 00-4.49-.032c-1.512 0-3.027 0-4.492.029a10.75 10.75 0 00-1.214.054 3.624 3.624 0 00-2.961 2.592 3.847 3.847 0 00-.116.637 4.724 4.724 0 000 .58l.036.936.087 1.729c.043.754.094 1.45.145 2.037a3.799 3.799 0 00-3.124 3.35v4.348c0 .116 0 .261.021.392.022.13.04.264.062.395A3.744 3.744 0 007.7 30.975c.127 0 .25 0 .363.019h.877l2.145-.033c-.975.975-1.942 2.537-1.997 3.418.124.13.263.244.414.34.12.099.25.181.391.247 1.087-.428 2.816-2.736 3.056-4.034 2.21-.04 4.258-.09 6.074-.149.116 1.258 1.929 3.734 3.067 4.18.16-.08.312-.177.45-.29.132-.084.254-.184.362-.298-.058-.964-1.196-2.71-2.247-3.653 1.05-.04 2-.08 2.841-.127a.471.471 0 00.363-.533.453.453 0 00-.363-.464c-3.36-.181-8.547-.312-14.553-.395H7.91a1.888 1.888 0 01-1.602-1.497l-.025-.196v-4.397a1.811 1.811 0 013.48-.478c.05.124.083.252.1.384.023.158.031.317.026.475v1.247a.989.989 0 001.023.993c3.519 0 6.937-.029 10.149-.065h.021a.918.918 0 00.917-.939v-1.45a1.935 1.935 0 013.331-1.366c.205.206.363.453.464.725l.062.206.04.21v.515l.058 2.236.032 1.048v.486c0 .121-.008.242-.025.363a2.254 2.254 0 01-.663 1.25 2.31 2.31 0 01-1.146.595.515.515 0 00-.3.543.414.414 0 00.427.417c.64-.056 1.249-.3 1.75-.7a3.386 3.386 0 001.194-1.816 3.86 3.86 0 00.083-.598c0-.203 0-.362.021-.525l.033-1.048.058-2.236v-.656c-.018-.113-.036-.24-.054-.374zm-5.513-2.337c-.51.329-.93.776-1.229 1.304a3.789 3.789 0 00-.464 1.78v.5c-2.65-.025-5.415-.043-8.253-.05v-.258a4.826 4.826 0 00-.043-.768 3.802 3.802 0 00-2.617-3.07 3.67 3.67 0 00-.635-.134 65.9 65.9 0 00.145-2.012l.087-1.729.036-.935a3 3 0 01.033-.38c.02-.111.047-.22.083-.327.16-.431.472-.79.877-1.008.211-.11.441-.178.678-.2.182-.02.606 0 .96 0 1.45.023 2.98.03 4.492.03 1.511 0 3.026 0 4.49-.033.363 0 .78-.021.961 0 .234.025.46.095.667.207.41.221.723.585.881 1.022l.05.163.033.167c.02.127.03.255.033.384l.036.935.084 1.726c.047.797.098 1.515.155 2.138a3.713 3.713 0 00-1.54.548z" fill="#1B1A1A"/><path d="M25.384 7.51c.047-1.954.087-4.092.112-6.525a.929.929 0 00-.917-.939h-.018L20.904.01a.965.965 0 00-.972.96v1.89L16.602.216a.978.978 0 00-1.23 0c-6.14 5.02-11.877 9.87-14.86 12.65-.128.12-.08.391.104.598.185.207.392.265.519.174 3.219-2.262 8.88-6.633 14.85-11.382l4.295 3.466a.992.992 0 001.613-.776V1.96h1.747c.03 2.175.065 4.147.112 5.94v.044a.776.776 0 00.301.591c2.9 2.27 5.18 3.988 6.822 5.126.137.097.388 0 .55-.225.164-.225.171-.424.062-.53-1.416-1.333-3.45-3.132-6.104-5.396z" fill="#1B1A1A"/><path d="M37.976 25v-9.248h1.712V25h-1.712zm0-10.624v-1.792h1.712v1.792h-1.712zM42.08 25v-9.248h1.712v.912a5.03 5.03 0 011.024-.736 2.54 2.54 0 011.232-.304c.374 0 .656.096.848.288.203.192.342.432.416.72.086.288.128.581.128.88V25h-1.712v-6.992c0-.33-.048-.587-.144-.768-.096-.181-.293-.272-.592-.272-.192 0-.394.059-.608.176a3.4 3.4 0 00-.592.4V25H42.08zm10.056.128c-.48 0-.87-.09-1.168-.272a1.622 1.622 0 01-.64-.768c-.128-.33-.192-.72-.192-1.168v-6.032h-.976v-1.136h.976v-2.704h1.712v2.704h1.488v1.136h-1.488v5.92c0 .363.058.624.176.784.117.15.34.224.672.224.085 0 .18-.005.288-.016.117-.01.229-.021.336-.032v1.264a6.81 6.81 0 01-.592.064 5.093 5.093 0 01-.592.032zm5.577 0c-.725 0-1.285-.139-1.68-.416-.394-.288-.672-.704-.832-1.248-.149-.555-.224-1.232-.224-2.032V19.32c0-.821.08-1.504.24-2.048.16-.544.438-.955.832-1.232.406-.277.96-.416 1.664-.416.78 0 1.35.16 1.712.48.374.32.62.784.736 1.392.118.597.176 1.317.176 2.16v.752H56.69v1.856c0 .373.032.677.096.912.075.235.187.41.336.528.16.107.363.16.608.16.256 0 .448-.059.576-.176a.93.93 0 00.272-.528c.054-.235.08-.507.08-.816v-.56h1.664v.352c0 .928-.197 1.659-.592 2.192-.394.533-1.066.8-2.016.8zM56.69 19.48h1.968v-.832c0-.384-.02-.704-.064-.96-.042-.267-.133-.464-.272-.592-.128-.139-.336-.208-.624-.208-.277 0-.49.064-.64.192-.138.128-.234.347-.288.656-.053.299-.08.715-.08 1.248v.496zM62.496 25v-9.248h1.712v1.312c.341-.565.683-.944 1.024-1.136a2.073 2.073 0 011.024-.288h.112c.043 0 .096.005.16.016v1.888a2.245 2.245 0 00-.448-.128 1.915 1.915 0 00-.496-.064c-.267 0-.512.064-.736.192-.213.117-.427.352-.64.704V25h-1.712zm5.764 0v-9.248h1.712V25H68.26zm0-10.624v-1.792h1.712v1.792H68.26zm6.649 10.752c-.683 0-1.222-.139-1.616-.416-.395-.277-.678-.672-.848-1.184-.16-.512-.24-1.115-.24-1.808v-2.688c0-.693.08-1.296.24-1.808.17-.512.453-.907.848-1.184.394-.277.933-.416 1.616-.416.682 0 1.216.139 1.6.416.394.277.672.672.832 1.184.17.512.256 1.115.256 1.808v2.688c0 .693-.086 1.296-.256 1.808-.16.512-.438.907-.832 1.184-.384.277-.918.416-1.6.416zm0-1.264c.33 0 .56-.096.688-.288.138-.192.218-.443.24-.752.032-.32.048-.65.048-.992v-2.896a9.66 9.66 0 00-.048-.992c-.022-.31-.102-.56-.24-.752-.128-.203-.358-.304-.688-.304-.331 0-.566.101-.704.304-.139.192-.224.443-.256.752-.022.31-.032.64-.032.992v2.896c0 .341.01.672.032.992.032.31.117.56.256.752.138.192.373.288.704.288zM79.769 25v-9.248h1.713v1.312c.34-.565.682-.944 1.024-1.136a2.072 2.072 0 011.024-.288h.112c.042 0 .096.005.16.016v1.888a2.247 2.247 0 00-.448-.128 1.916 1.916 0 00-.496-.064c-.267 0-.512.064-.736.192-.214.117-.427.352-.64.704V25H79.77z" fill="#555"/></svg>